<?xml version="1.0" encoding="UTF-8"?>
<svg width="200px" height="200px" viewBox="0 0 200 200" version="1.1" xmlns="http://www.w3.org/2000/svg" xmlns:xlink="http://www.w3.org/1999/xlink">
    <title>del</title>
    <g id="页面-1" stroke="none" stroke-width="1" fill="none" fill-rule="evenodd">
        <g id="del" fill="#2C2C2C" fill-rule="nonzero">
            <path d="M100,200 C44.775,200 0,155.225 0,100 C0,44.7708984 44.775,0 100,0 C155.229102,0 200.004102,44.7708984 200.004102,100 C200.004102,155.225 155.229102,200 100,200 Z M141.25,70.5375 C144.508398,67.2832031 144.508398,62.0082031 141.25,58.7541016 C137.995898,55.4957031 132.720703,55.4957031 129.466602,58.7541016 L100.004102,88.2166016 L70.5416016,58.7541016 C67.2873047,55.4957031 62.0123047,55.4957031 58.7582031,58.7541016 C55.4998047,62.0082031 55.4998047,67.2832031 58.7582031,70.5375 L88.2207031,100 L58.7582031,129.4625 C55.4998047,132.716797 55.4998047,137.991797 58.7582031,141.246094 C62.0123047,144.504297 67.2873047,144.504297 70.5416016,141.246094 L100.004102,111.783594 L129.466602,141.246094 C132.720703,144.504297 137.995898,144.504297 141.25,141.246094 C144.508398,137.991797 144.508398,132.716797 141.25,129.4625 L111.787305,100 L141.25,70.5375 Z" id="形状"></path>
        </g>
    </g>
</svg>