<?xml version="1.0" encoding="UTF-8"?>
<svg width="200px" height="200px" viewBox="0 0 200 200" version="1.1" xmlns="http://www.w3.org/2000/svg" xmlns:xlink="http://www.w3.org/1999/xlink">
    <title>success</title>
    <g id="页面-1" stroke="none" stroke-width="1" fill="none" fill-rule="evenodd">
        <g id="success" fill="#1AFA29" fill-rule="nonzero">
            <path d="M100,0 C44.6666667,0 0,45.3333333 0,100 C0,154.666667 45.3333333,200 100,200 C154.666667,200 200,154.666667 200,100 C200,45.3333333 154.666667,0 100,0 Z M156,79.3333333 L96.6666667,138.666667 C91.3333333,144 84,144 79.3333333,138.666667 L44,103.333333 C38.6666667,98 38.6666667,90.6666667 44,86 C49.3333333,81.3333333 56.6666667,80.6666667 61.3333333,86 L88,112.666667 L138,62.6666667 C143.333333,57.3333333 150.666667,57.3333333 155.333333,62.6666667 C160.666667,66.6666667 160.666667,74 156,79.3333333 L156,79.3333333 Z" id="形状"></path>
        </g>
    </g>
</svg>